<svg width="138" height="31" viewBox="0 0 138 31" fill="none" xmlns="http://www.w3.org/2000/svg">
<path d="M30.9453 13.082C30.9453 14.3568 30.7878 15.4954 30.4727 16.498C30.1576 17.5007 29.7279 18.3887 29.1836 19.1621C28.6536 19.9212 28.0378 20.5729 27.3359 21.1172C26.6341 21.6615 25.8965 22.1055 25.123 22.4492C24.3639 22.793 23.5905 23.0436 22.8027 23.2012C22.0293 23.3587 21.2988 23.4375 20.6113 23.4375H7.97852V17.8516H20.6113C21.3275 17.7943 21.972 17.651 22.5449 17.4219C23.1322 17.1784 23.6335 16.8561 24.0488 16.4551C24.4642 16.054 24.7865 15.5742 25.0156 15.0156C25.2448 14.4427 25.3594 13.7982 25.3594 13.082V10.5469C25.2878 9.84505 25.1374 9.20052 24.9082 8.61328C24.679 8.02604 24.3639 7.52474 23.9629 7.10938C23.5762 6.69401 23.1035 6.37174 22.5449 6.14258C21.9863 5.89909 21.3418 5.77734 20.6113 5.77734H8.02148C7.27669 5.77734 6.71094 5.9707 6.32422 6.35742C5.9375 6.74414 5.74414 7.30273 5.74414 8.0332V31H0.158203V8.0332C0.158203 6.60091 0.416016 5.38346 0.931641 4.38086C1.46159 3.37826 2.11328 2.56901 2.88672 1.95312C3.67448 1.33724 4.52669 0.893229 5.44336 0.621094C6.36003 0.334635 7.20508 0.191406 7.97852 0.191406H20.6113C21.8717 0.191406 23.0033 0.35612 24.0059 0.685547C25.0085 1.00065 25.8893 1.43034 26.6484 1.97461C27.4219 2.50456 28.0736 3.12044 28.6035 3.82227C29.1478 4.52409 29.5918 5.26172 29.9355 6.03516C30.2936 6.79427 30.5514 7.56771 30.709 8.35547C30.8665 9.12891 30.9453 9.85938 30.9453 10.5469V13.082ZM66.1367 28.1855C66.1367 28.5866 66.0651 28.959 65.9219 29.3027C65.7786 29.6465 65.5781 29.9473 65.3203 30.2051C65.0768 30.4486 64.7832 30.6419 64.4395 30.7852C64.0957 30.9284 63.7233 31 63.3223 31H43.1699C42.6543 31 42.0957 30.9427 41.4941 30.8281C40.9069 30.6992 40.3197 30.5059 39.7324 30.248C39.1595 29.9902 38.6081 29.6608 38.0781 29.2598C37.5482 28.8444 37.0755 28.3503 36.6602 27.7773C36.2591 27.1901 35.9368 26.5169 35.6934 25.7578C35.4499 24.9844 35.3281 24.1178 35.3281 23.1582V8.0332C35.3281 7.51758 35.3854 6.96615 35.5 6.37891C35.6289 5.77734 35.8223 5.1901 36.0801 4.61719C36.3379 4.02995 36.6745 3.47135 37.0898 2.94141C37.5052 2.41146 37.9993 1.94596 38.5723 1.54492C39.1595 1.12956 39.8327 0.80013 40.5918 0.556641C41.3509 0.313151 42.2103 0.191406 43.1699 0.191406H65.8789V5.77734H43.1699C42.4395 5.77734 41.8809 5.9707 41.4941 6.35742C41.1074 6.74414 40.9141 7.31706 40.9141 8.07617V23.1582C40.9141 23.8743 41.1074 24.4329 41.4941 24.834C41.8952 25.2207 42.4538 25.4141 43.1699 25.4141H60.5508V18.4102H45.6836V12.7812H63.3223C63.7233 12.7812 64.0957 12.86 64.4395 13.0176C64.7832 13.1608 65.0768 13.3613 65.3203 13.6191C65.5781 13.877 65.7786 14.1777 65.9219 14.5215C66.0651 14.8509 66.1367 15.209 66.1367 15.5957V28.1855ZM91.3594 18.1094H71.207V13.082H91.3594V18.1094ZM105.346 31H99.7383V5.77734H94.6895V0.191406H105.346V31ZM137.4 23.1582C137.4 24.6048 137.135 25.8294 136.605 26.832C136.09 27.8203 135.438 28.6296 134.65 29.2598C133.877 29.8757 133.032 30.3197 132.115 30.5918C131.199 30.8639 130.346 31 129.559 31H111.641V25.4141H129.559C130.318 25.4141 130.876 25.2207 131.234 24.834C131.607 24.4473 131.793 23.8887 131.793 23.1582V18.4102H111.641V12.7812H131.793V8.07617C131.793 6.54362 131.048 5.77734 129.559 5.77734H111.641V0.191406H129.559C130.518 0.191406 131.378 0.313151 132.137 0.556641C132.896 0.80013 133.562 1.12956 134.135 1.54492C134.722 1.94596 135.223 2.41146 135.639 2.94141C136.054 3.47135 136.391 4.02995 136.648 4.61719C136.906 5.1901 137.092 5.77734 137.207 6.37891C137.336 6.96615 137.4 7.51758 137.4 8.0332V23.1582Z" fill="#6F0000"/>
</svg>
