<svg width="61" height="61" viewBox="0 0 61 61" fill="none" xmlns="http://www.w3.org/2000/svg">
<path d="M20.3333 27.0286H18.8833C16.9045 26.9571 14.9322 27.293 13.0887 28.0155C11.2452 28.738 9.56983 29.8316 8.1666 31.2286L7.7666 31.6953V45.4953H14.5666V37.6619L15.4833 36.6286L15.8999 36.1453C18.0698 33.9161 20.7712 32.2757 23.7499 31.3786C22.2586 30.2438 21.0824 28.7463 20.3333 27.0286V27.0286Z" fill="#717171"/>
<path d="M52.5666 31.1786C51.1634 29.7817 49.488 28.688 47.6445 27.9655C45.801 27.243 43.8287 26.9071 41.85 26.9786C41.2431 26.9803 40.6367 27.0137 40.0333 27.0786C39.2701 28.6901 38.126 30.0916 36.7 31.1619C39.8799 32.0417 42.7606 33.7701 45.0333 36.1619L45.4499 36.6286L46.35 37.6619V45.5119H52.9166V31.6453L52.5666 31.1786Z" fill="#717171"/>
<path d="M18.8333 23.7786H19.35C19.1099 21.7173 19.4716 19.6306 20.3913 17.7704C21.3111 15.9102 22.7496 14.3559 24.5333 13.2952C23.8867 12.3075 22.9947 11.5046 21.9446 10.9652C20.8945 10.4257 19.7223 10.1683 18.5428 10.218C17.3633 10.2677 16.217 10.6228 15.216 11.2487C14.215 11.8746 13.3937 12.7497 12.8325 13.7883C12.2714 14.827 11.9896 15.9936 12.0147 17.1738C12.0399 18.3541 12.3711 19.5076 12.976 20.5214C13.581 21.5352 14.4388 22.3745 15.4655 22.9572C16.4923 23.5398 17.6527 23.8458 18.8333 23.8452V23.7786Z" fill="#717171"/>
<path d="M41.0499 22.5286C41.0701 22.9116 41.0701 23.2955 41.0499 23.6786C41.3697 23.7293 41.6928 23.7571 42.0166 23.7619H42.3332C43.5086 23.6992 44.6477 23.3333 45.6397 22.6997C46.6316 22.0661 47.4426 21.1865 47.9937 20.1464C48.5447 19.1064 48.8171 17.9414 48.7843 16.7648C48.7515 15.5882 48.4146 14.4402 47.8063 13.4325C47.1981 12.4248 46.3394 11.5917 45.3136 11.0145C44.2879 10.4372 43.1302 10.1353 41.9531 10.1383C40.7761 10.1412 39.6199 10.4489 38.5971 11.0314C37.5743 11.6138 36.7197 12.4512 36.1166 13.4619C37.625 14.4468 38.8654 15.7907 39.7265 17.3732C40.5875 18.9556 41.0423 20.7271 41.0499 22.5286V22.5286Z" fill="#717171"/>
<path d="M30.1166 29.9953C34.2312 29.9953 37.5666 26.6598 37.5666 22.5453C37.5666 18.4308 34.2312 15.0953 30.1166 15.0953C26.0021 15.0953 22.6666 18.4308 22.6666 22.5453C22.6666 26.6598 26.0021 29.9953 30.1166 29.9953Z" fill="#717171"/>
<path d="M30.5166 33.962C28.34 33.8741 26.1681 34.2274 24.1317 35.0008C22.0952 35.7741 20.2362 36.9515 18.6666 38.462L18.2499 38.9286V49.4786C18.2564 49.8223 18.3306 50.1613 18.4681 50.4763C18.6057 50.7912 18.8039 51.076 19.0516 51.3144C19.2992 51.5527 19.5914 51.74 19.9114 51.8654C20.2314 51.9908 20.573 52.0519 20.9166 52.0453H40.0666C40.4102 52.0519 40.7518 51.9908 41.0718 51.8654C41.3918 51.74 41.684 51.5527 41.9316 51.3144C42.1793 51.076 42.3775 50.7912 42.5151 50.4763C42.6526 50.1613 42.7268 49.8223 42.7333 49.4786V38.962L42.3333 38.462C40.7738 36.9468 38.9213 35.7662 36.8894 34.9924C34.8574 34.2186 32.6889 33.8679 30.5166 33.962V33.962Z" fill="#717171"/>
</svg>
