<svg width="56" height="56" viewBox="0 0 56 56" fill="none" xmlns="http://www.w3.org/2000/svg">
<path d="M28.1719 0.36792C13.0084 0.36792 0.671875 12.7044 0.671875 27.8679C0.671875 43.0314 13.0084 55.3679 28.1719 55.3679C43.3354 55.3679 55.6719 43.0314 55.6719 27.8679C55.6719 12.7044 43.3354 0.36792 28.1719 0.36792ZM30.9219 44.3679H25.4219V38.8679H30.9219V44.3679ZM33.6059 30.9342C33.0669 31.3687 32.5471 31.7839 32.1346 32.1964C31.0126 33.3157 30.9246 34.3332 30.9219 34.3772V34.7429H25.4219V34.2837C25.4219 33.9592 25.5016 31.0469 28.2434 28.3052C28.7796 27.7689 29.4451 27.2244 30.1436 26.6579C32.1621 25.0217 33.4876 23.8282 33.4876 22.1837C33.4557 20.7944 32.8813 19.4729 31.8873 18.5017C30.8933 17.5306 29.5588 16.9871 28.1692 16.9875C26.7795 16.9878 25.4453 17.532 24.4518 18.5037C23.4583 19.4753 22.8846 20.7972 22.8534 22.1864H17.3534C17.3534 16.2217 22.2071 11.3679 28.1719 11.3679C34.1366 11.3679 38.9904 16.2217 38.9904 22.1864C38.9904 26.5782 35.7481 29.1989 33.6059 30.9342Z" fill="black"/>
</svg>
