<svg width="61" height="61" viewBox="0 0 61 61" fill="none" xmlns="http://www.w3.org/2000/svg">
<path d="M54.6903 31.8228L32.1903 6.82281C31.2428 5.76781 29.4228 5.76781 28.4753 6.82281L5.97525 31.8228C5.65139 32.1818 5.43882 32.6271 5.36336 33.1047C5.28791 33.5823 5.35284 34.0715 5.55025 34.5128C5.95025 35.4153 6.84525 35.9953 7.83275 35.9953H12.8328V53.4953C12.8328 54.1583 13.0961 54.7942 13.565 55.2631C14.0338 55.7319 14.6697 55.9953 15.3328 55.9953H22.8328C23.4958 55.9953 24.1317 55.7319 24.6005 55.2631C25.0694 54.7942 25.3328 54.1583 25.3328 53.4953V43.4953H35.3328V53.4953C35.3328 54.1583 35.5961 54.7942 36.065 55.2631C36.5338 55.7319 37.1697 55.9953 37.8328 55.9953H45.3327C45.9958 55.9953 46.6317 55.7319 47.1005 55.2631C47.5694 54.7942 47.8328 54.1583 47.8328 53.4953V35.9953H52.8328C53.3169 35.9974 53.7912 35.8585 54.1978 35.5957C54.6045 35.3328 54.9258 34.9574 55.1227 34.515C55.3196 34.0727 55.3836 33.5827 55.3068 33.1046C55.23 32.6266 55.0158 32.1812 54.6903 31.8228Z" fill="#717171"/>
</svg>
