<svg width="56" height="62" viewBox="0 0 56 62" fill="none" xmlns="http://www.w3.org/2000/svg">
<path d="M40.3941 46.1107V36.944H19.0052V24.7218H40.3941V15.5551L55.6719 30.8329L40.3941 46.1107ZM34.283 0.277344C35.9038 0.277344 37.4581 0.921191 38.6042 2.06725C39.7502 3.2133 40.3941 4.76769 40.3941 6.38846V12.4996H34.283V6.38846H6.78299V55.2773H34.283V49.1662H40.3941V55.2773C40.3941 56.8981 39.7502 58.4525 38.6042 59.5986C37.4581 60.7446 35.9038 61.3885 34.283 61.3885H6.78299C5.16222 61.3885 3.60783 60.7446 2.46178 59.5986C1.31572 58.4525 0.671875 56.8981 0.671875 55.2773V6.38846C0.671875 4.76769 1.31572 3.2133 2.46178 2.06725C3.60783 0.921191 5.16222 0.277344 6.78299 0.277344H34.283Z" fill="black"/>
</svg>
