<svg width="60" height="61" viewBox="0 0 60 61" fill="none" xmlns="http://www.w3.org/2000/svg">
<path d="M29.9998 5.9953C15.8998 5.9953 4.99976 16.3203 4.99976 30.2453C4.99976 37.5203 7.97476 43.8453 12.8498 48.1703C13.2498 48.4953 13.4998 49.0453 13.5248 49.5953L13.6498 54.0453C13.7498 55.4703 15.1748 56.3953 16.4748 55.8203L21.4248 53.6453C21.8498 53.4953 22.3248 53.4203 22.7498 53.4953C24.9998 54.1703 27.4998 54.4953 29.9998 54.4953C44.0998 54.4953 54.9998 44.1703 54.9998 30.2453C54.9998 16.3203 44.0998 5.9953 29.9998 5.9953ZM44.9998 24.6453L37.6748 36.3203C36.4998 38.1453 33.9998 38.6203 32.2498 37.2453L26.3998 32.9203C26.1401 32.7256 25.8243 32.6203 25.4998 32.6203C25.1752 32.6203 24.8594 32.7256 24.5998 32.9203L16.6998 38.9203C15.6498 39.7453 14.2748 38.4953 14.9998 37.3453L22.3248 25.6703C23.4998 23.8453 25.9998 23.3703 27.7498 24.6703L33.5998 29.0703C33.8594 29.265 34.1752 29.3703 34.4998 29.3703C34.8243 29.3703 35.1401 29.265 35.3998 29.0703L43.2998 23.0703C44.3498 22.2453 45.7248 23.4953 44.9998 24.6453Z" fill="#717171"/>
</svg>
