<svg width="61" height="61" viewBox="0 0 61 61" fill="none" xmlns="http://www.w3.org/2000/svg">
<path d="M30.6666 55.1286C32.2149 55.1306 33.7253 54.6501 34.9879 53.754C36.2504 52.8579 37.2025 51.5907 37.7116 50.1286H23.6216C24.1308 51.5907 25.0828 52.8579 26.3454 53.754C27.608 54.6501 29.1184 55.1306 30.6666 55.1286ZM48.1666 36.5936V25.1286C48.1666 17.0861 42.7041 10.3111 35.3041 8.2736C34.5716 6.4286 32.7816 5.1286 30.6666 5.1286C28.5516 5.1286 26.7616 6.4286 26.0291 8.2736C18.6291 10.3136 13.1666 17.0861 13.1666 25.1286V36.5936L8.89913 40.8611C8.66652 41.0929 8.48205 41.3684 8.35634 41.6717C8.23063 41.975 8.16615 42.3002 8.16663 42.6286V45.1286C8.16663 45.7916 8.43002 46.4275 8.89886 46.8964C9.3677 47.3652 10.0036 47.6286 10.6666 47.6286H50.6666C51.3297 47.6286 51.9656 47.3652 52.4344 46.8964C52.9032 46.4275 53.1666 45.7916 53.1666 45.1286V42.6286C53.1671 42.3002 53.1026 41.975 52.9769 41.6717C52.8512 41.3684 52.6667 41.0929 52.4341 40.8611L48.1666 36.5936Z" fill="#717171"/>
</svg>
