<svg width="56" height="59" viewBox="0 0 56 59" fill="none" xmlns="http://www.w3.org/2000/svg">
<path d="M28.1824 21.1604C26.2419 21.1604 24.4247 21.9133 23.0488 23.2892C21.6794 24.665 20.9201 26.4822 20.9201 28.4228C20.9201 30.3633 21.6794 32.1805 23.0488 33.5563C24.4247 34.9257 26.2419 35.6851 28.1824 35.6851C30.1229 35.6851 31.9401 34.9257 33.316 33.5563C34.6854 32.1805 35.4447 30.3633 35.4447 28.4228C35.4447 26.4822 34.6854 24.665 33.316 23.2892C32.644 22.612 31.8441 22.0751 30.9629 21.7096C30.0816 21.3442 29.1365 21.1575 28.1824 21.1604ZM54.9407 36.4444L50.6963 32.8165C50.8975 31.5834 51.0013 30.3243 51.0013 29.0718C51.0013 27.8192 50.8975 26.5536 50.6963 25.327L54.9407 21.6991C55.2614 21.4246 55.4908 21.059 55.5987 20.651C55.7065 20.2429 55.6875 19.8117 55.5443 19.4146L55.4859 19.2459C54.3178 15.9794 52.5675 12.9516 50.3198 10.3091L50.203 10.1729C49.9301 9.85194 49.5663 9.62125 49.1597 9.51119C48.753 9.40112 48.3226 9.41686 47.925 9.55631L42.6551 11.4319C40.7081 9.83538 38.5405 8.57632 36.1911 7.70017L35.1722 2.19015C35.0953 1.77507 34.8939 1.3932 34.5949 1.09528C34.2958 0.797354 33.9131 0.597485 33.4977 0.522222L33.3225 0.489772C29.9477 -0.120289 26.3912 -0.120289 23.0164 0.489772L22.8412 0.522222C22.4258 0.597485 22.0431 0.797354 21.744 1.09528C21.445 1.3932 21.2436 1.77507 21.1667 2.19015L20.1413 7.72613C17.8142 8.60926 15.6463 9.86527 13.7227 11.4449L8.41387 9.55631C8.01646 9.41575 7.58569 9.39945 7.17879 9.50958C6.7719 9.61971 6.40815 9.85105 6.13588 10.1729L6.01906 10.3091C3.77542 12.9544 2.02558 15.9815 0.853018 19.2459L0.794608 19.4146C0.502558 20.2259 0.742688 21.1345 1.39818 21.6991L5.69456 25.366C5.49337 26.5861 5.39602 27.8322 5.39602 29.0653C5.39602 30.3113 5.49337 31.5574 5.69456 32.7646L1.41116 36.4314C1.09052 36.7059 0.861043 37.0715 0.753228 37.4796C0.645412 37.8876 0.664373 38.3189 0.807588 38.7159L0.865998 38.8846C2.04069 42.1491 3.77352 45.167 6.03204 47.8214L6.14886 47.9577C6.42179 48.2786 6.78556 48.5093 7.19221 48.6193C7.59886 48.7294 8.02932 48.7137 8.42685 48.5742L13.7357 46.6856C15.6697 48.2757 17.8244 49.5347 20.1543 50.4044L21.1797 55.9404C21.2566 56.3555 21.4579 56.7373 21.757 57.0353C22.0561 57.3332 22.4388 57.533 22.8541 57.6083L23.0294 57.6408C26.4374 58.2541 29.9275 58.2541 33.3355 57.6408L33.5107 57.6083C33.9261 57.533 34.3088 57.3332 34.6078 57.0353C34.9069 56.7373 35.1083 56.3555 35.1852 55.9404L36.2041 50.4304C38.5535 49.5477 40.7211 48.2951 42.6681 46.6986L47.938 48.5742C48.3354 48.7148 48.7662 48.7311 49.1731 48.6209C49.58 48.5108 49.9437 48.2795 50.216 47.9577L50.3328 47.8214C52.5913 45.154 54.3242 42.1491 55.4989 38.8846L55.5573 38.7159C55.8363 37.9111 55.5962 37.009 54.9407 36.4444ZM28.1824 39.8322C21.8806 39.8322 16.773 34.7245 16.773 28.4228C16.773 22.121 21.8806 17.0133 28.1824 17.0133C34.4842 17.0133 39.5919 22.121 39.5919 28.4228C39.5919 34.7245 34.4842 39.8322 28.1824 39.8322Z" fill="black"/>
</svg>
